PathFileType	4	(X/Y/Z)	Exemple_fichier.trc																																					
DataRate	CameraRate	NumFrames	NumMarkers	Units	OrigDataRate	OrigDataStartFrame	OrigNumFrames																																	
100	100	12	13	m	100	501	1000																																	
Frame#	Time	C7			T10			CLAV			STRN			RSHO			RUPA			RELB			RFRA			RWRA			RWRB			RFIN0			RFINx			RFINy		
		X1	Y1	Z1	X2	Y2	Z2	X3	Y3	Z3	X4	Y4	Z4	X5	Y5	Z5	X6	Y6	Z6	X7	Y7	Z7	X8	Y8	Z8	X9	Y9	Z9	X10	Y10	Z10	X11	Y11	Z11	X12	Y12	Z12	X13	Y13	Z13
																																								
501	5	0.4428926	1.29561	-0.1069048	0.4452841	1.155858	-0.06762732	0.4518738	1.228155	-0.22684	0.4499466	1.095001	-0.3282453	0.5983963	1.253484	-0.1753614	0.7011611	1.073601	-0.2276142	0.7487852	1.008658	-0.2195515	0.6409842	0.9935934	-0.3554086	0.5865491	0.990833	-0.3820703	0.6113516	0.9527945	-0.3987258	0.5592395	0.9306204	-0.4245047	0.541199	0.9265677	-0.4331791	0.5517963	0.9607229	-0.4310067
502	5.01	0.4427587	1.295593	-0.1068012	0.4451795	1.155811	-0.06754357	0.4517392	1.228138	-0.2267268	0.4498117	1.094995	-0.3281975	0.5982396	1.253578	-0.1753913	0.7026601	1.075189	-0.2281627	0.7508407	1.010625	-0.2204686	0.6440008	0.9949332	-0.3571003	0.5899506	0.992122	-0.3843353	0.614468	0.9536101	-0.400252	0.5617224	0.9309003	-0.4247737	0.5433783	0.9266622	-0.432823	0.5541484	0.9608412	-0.4319856
503	5.02	0.4426183	1.295576	-0.1066887	0.4450659	1.155763	-0.06745493	0.4516028	1.228122	-0.226605	0.4496814	1.094997	-0.3281417	0.5980825	1.253704	-0.1754201	0.7041887	1.076884	-0.228771	0.7529597	1.012725	-0.2214629	0.6471408	0.9963084	-0.358889	0.593493	0.9934216	-0.3867243	0.6177185	0.9544384	-0.4018459	0.5644372	0.9312533	-0.4251929	0.5458221	0.9268468	-0.4326546	0.5567424	0.9610142	-0.4331209
504	5.03	0.4424743	1.295558	-0.1065685	0.4449444	1.155715	-0.06736313	0.451465	1.228108	-0.2264756	0.449552	1.095007	-0.3280764	0.5979209	1.25386	-0.1754474	0.7057299	1.078677	-0.2294399	0.7551198	1.014952	-0.2225379	0.6503726	0.9977219	-0.360764	0.5971461	0.9947263	-0.3892251	0.6210811	0.9552894	-0.4035107	0.5673537	0.9316873	-0.4257792	0.5485004	0.9271273	-0.432697	0.5595517	0.961249	-0.4344219
505	5.04	0.4423293	1.295538	-0.1064416	0.4448172	1.155666	-0.06726743	0.4513261	1.228095	-0.2263397	0.4494189	1.095023	-0.328	0.597751	1.254039	-0.175472	0.7072669	1.080558	-0.2301683	0.7572983	1.017295	-0.2236946	0.653666	0.9991767	-0.3627159	0.6008792	0.9960376	-0.3918247	0.6245352	0.9561747	-0.40525	0.570442	0.932208	-0.426546	0.551384	0.9275066	-0.4329692	0.5625475	0.9615514	-0.4358932
506	5.05	0.4421843	1.295518	-0.1063085	0.4446878	1.155616	-0.06716505	0.4511864	1.228082	-0.2261987	0.4492772	1.095043	-0.327911	0.5975715	1.254237	-0.1754923	0.7087831	1.082513	-0.2309532	0.7594727	1.019743	-0.2249312	0.6569923	1.000677	-0.3647365	0.6046577	0.9973628	-0.3945067	0.6280596	0.9571087	-0.4070669	0.5736734	0.9328199	-0.4275042	0.5544448	0.927987	-0.433487	0.5657	0.9619282	-0.4375355
507	5.06	0.4420387	1.295497	-0.1061693	0.4445591	1.155567	-0.06705265	0.4510459	1.228069	-0.2260536	0.449122	1.095064	-0.3278082	0.5973851	1.254451	-0.1755061	0.7102626	1.084528	-0.2317903	0.7616219	1.022279	-0.2262435	0.6603239	1.002227	-0.3668187	0.6084419	0.9987114	-0.3972503	0.6316309	0.9581074	-0.4089641	0.5770205	0.9335274	-0.4286638	0.5576558	0.9285703	-0.4342644	0.5689792	0.9623881	-0.4393477
508	5.07	0.4418911	1.295474	-0.1060241	0.4444324	1.155518	-0.06692818	0.4509052	1.228055	-0.2259047	0.4489502	1.095081	-0.3276906	0.5971965	1.254677	-0.175511	0.7116913	1.086587	-0.2326749	0.7637256	1.024886	-0.2276265	0.663634	1.003834	-0.3689575	0.6121894	1.000091	-0.400032	0.6352244	0.9591866	-0.4109441	0.5804572	0.9343334	-0.4300339	0.5609905	0.9292557	-0.4353134	0.5723555	0.9629407	-0.4413281
509	5.08	0.4417406	1.29545	-0.1058731	0.4443079	1.155469	-0.0667919	0.4507645	1.22804	-0.2257524	0.4487625	1.095095	-0.3275591	0.5970094	1.254913	-0.1755055	0.7130579	1.088675	-0.2336017	0.7657648	1.027545	-0.2290751	0.6668971	1.005502	-0.37115	0.6158619	1.001506	-0.4028303	0.6388157	0.960359	-0.41301	0.5839596	0.9352378	-0.4316222	0.5644224	0.9300386	-0.4366417	0.5757996	0.9635936	-0.4434744
510	5.09	0.4415875	1.295426	-0.1057171	0.4441857	1.155422	-0.06664594	0.4506243	1.228024	-0.2255967	0.4485648	1.095106	-0.3274172	0.596825	1.255157	-0.1754889	0.7143528	1.090778	-0.2345659	0.7677211	1.030235	-0.2305846	0.6700902	1.007231	-0.3733944	0.6194296	1.002956	-0.4056307	0.6423824	0.9616305	-0.4151657	0.5875044	0.9362356	-0.4334309	0.5679238	0.9309088	-0.4382483	0.5792826	0.9643485	-0.445782
511	5.1	0.4414328	1.295401	-0.1055574	0.444066	1.155377	-0.06649346	0.4504849	1.228006	-0.2254381	0.4483674	1.095117	-0.3272711	0.5966423	1.255405	-0.1754626	0.7155672	1.092883	-0.235563	0.7695773	1.032934	-0.2321502	0.6731934	1.009017	-0.3756896	0.6228732	1.004436	-0.4084288	0.645905	0.962999	-0.4174154	0.5910688	0.9373158	-0.4354539	0.5714679	0.9318516	-0.4401207	0.5827761	0.9651986	-0.448242
512	5.11	0.4412774	1.295376	-0.1053957	0.4439484	1.155335	-0.06633813	0.4503468	1.227988	-0.2252767	0.4481808	1.09513	-0.3271266	0.5964595	1.255653	-0.1754281	0.7166926	1.094976	-0.2365884	0.7713177	1.03562	-0.2337671	0.6761919	1.010849	-0.3780359	0.6261834	1.00594	-0.4112299	0.6493676	0.9644546	-0.4197619	0.5946292	0.9384618	-0.4376746	0.575029	0.9328489	-0.4422336	0.586252	0.9661287	-0.4508403
